<svg xmlns="http://www.w3.org/2000/svg" id="_레이어_1" version="1.1" viewBox="0 0 659.763916 909.8678495"><defs><style>.st0{fill:#03492d}</style></defs><path d="M132.525 847.13s11.48-8.855 9.643-25.918c-3.466-17.806-16.105-27.255-31.975-26.574-20.628.05-57.072-.627-86.279-.755l-.033 110.521 89.77.281c.549-.425 17.747-.487 26.863-12.35 4.134-5.385 5.01-10.147 5.57-17.591.615-8.179-1.836-15.322-5.158-20.15-3.334-4.856-7.551-7.377-8.4-7.464m-85.684-29.896 60.245.14c0-.4 12.103 1.54 12.35 9.627-.359 9.59-9.63 10.308-11.789 10.411h-60.95zm65.977 65.11-65.841.57V859.53h60.385c.013-.058 3.285-.021 3.607.02l-.004-.004c4.304.529 12 .95 12.474 12.094.371 8.563-8.913 10.647-10.621 10.705M289.501 829.106c-.371-30.87-26.178-35.017-29.755-35.14l-2.963-.104c-.235.005-1.456-.07-1.473-.037l-82.949.343.933 110.587 22.15.504-.618-39.309 44.837.017 26.76 39.873 26.062-.082-26.4-43.055c.094.09 23.767-4.407 23.416-33.597m-36.493 13.316-57.923.499-.771-25.79h56.931c1.205 0 14.208-1.04 14.967 12.78-.441 12.948-12.284 12.502-13.204 12.51M313.476 793.532h21.643v110.852h-21.643zM635.933 906.567l-.083-112.333-24.8.181.104 77.56-69.934-77.696-24.73.272-.734 110.955 25.076.054-.413-77.68 70.822 78.604zM426.89 791.86q-.825 0-1.655.013c-38.685-1.452-66.819 22.34-67.137 59.111 1.073 38.87 32.442 58.636 66.815 58.883 42.675.124 66.897-28.48 67.908-56.58.112-41.396-31.232-61.319-65.931-61.426m-2.526 93.868c-23.809.227-40.698-15.4-40.45-37.542s16.5-32.508 41.808-32.838c25.307-.33 42.382 15.92 42.663 34.72.276 18.804-20.22 35.437-44.02 35.66M493.706 291.216 604.768 0 330.45 175.869 55.67.876l110.792 290.127L0 327.847l329.69 301.45 330.074-299.683zm-288.198 20.677L115.809 73.57l45.422 29.972 87.097 228.137-108.515 24.485-63.44-14.068zm116.994 270.12L73.225 354.274l63.26 14.356 186.53 166.719zm.546-65.453-35.73-30.934.3-254.533-89.543-64.944-19.603-51.243 145.31 97.594zM544.212 75.063l-90.27 236.917 129.235 31.085-62.061 13.731-109.351-24.455 87.686-228.223zM336.68 212.645l144.876-96.435-18.754 50.195-90.985 65.17.074 255.723-35.678 30.912zm-.59 323.076 187.325-166.51 62.778-13.821-249.716 226.929zM151.643 678.686h13.851v28.386h33.515v-28.386h13.851v69.767h-13.85V717.93h-33.516v30.523h-13.85zm102.256 0h7.61l24.965 54.206c4.018 8.72 6.84 13.509 8.55 15.646h-8.294c-5.215 0-8.806-1.966-11.713-8.72l-2.308-5.473h-31.464l-6.155 14.193h-13.082zm14.107 45.058-11.114-25.735-11.115 25.735zm35.824-45.058h7.61l42.663 45.998v-45.998h11.97v69.767h-7.61L315.8 702.455v45.998h-11.97zm66.86 84.045c-2.052-2.052-2.993-5.558-2.993-8.892 1.967.94 4.703 1.368 7.353 1.368 6.327 0 9.832-4.104 9.832-12.654v-63.867h13.85v65.235c0 13.252-6.839 21.631-18.638 21.631-3.762 0-7.096-.598-9.404-2.821m44.715-84.045h13.85v69.767h-13.85zm30.523 0h7.61l42.663 45.998v-45.998h11.97v69.767h-7.61l-42.663-45.998v45.998h-11.97z" class="st0"/></svg>